<mxfile host="app.diagrams.net" modified="2024-05-30T02:47:33.246Z" agent="Mozilla/5.0 (Windows NT 10.0; Win64; x64) AppleWebKit/537.36 (KHTML, like Gecko) Chrome/125.0.0.0 Safari/537.36" etag="RMltBBLT-9i97eqCxos1" version="24.4.10" type="github">
  <diagram name="EXERCISE-1" id="MPkZJCaE3T1Kb-OJ2wT7">
    <mxGraphModel dx="1050" dy="653" grid="1" gridSize="10" guides="1" tooltips="1" connect="1" arrows="1" fold="1" page="1" pageScale="1" pageWidth="827" pageHeight="1169" math="0" shadow="0">
      <root>
        <mxCell id="0" />
        <mxCell id="1" parent="0" />
        <mxCell id="YxZmmdV7Os8zLfBFAMLC-49" value="EXERCISE 15" style="text;html=1;align=center;verticalAlign=middle;resizable=0;points=[];autosize=1;strokeColor=none;fillColor=none;" vertex="1" parent="1">
          <mxGeometry x="320" width="100" height="30" as="geometry" />
        </mxCell>
        <mxCell id="YxZmmdV7Os8zLfBFAMLC-50" value="" style="edgeStyle=orthogonalEdgeStyle;rounded=0;orthogonalLoop=1;jettySize=auto;html=1;" edge="1" parent="1" source="YxZmmdV7Os8zLfBFAMLC-51" target="YxZmmdV7Os8zLfBFAMLC-53">
          <mxGeometry relative="1" as="geometry" />
        </mxCell>
        <mxCell id="YxZmmdV7Os8zLfBFAMLC-51" value="INICIO" style="ellipse;whiteSpace=wrap;html=1;" vertex="1" parent="1">
          <mxGeometry x="330" y="30" width="80" height="80" as="geometry" />
        </mxCell>
        <mxCell id="YxZmmdV7Os8zLfBFAMLC-52" value="" style="edgeStyle=orthogonalEdgeStyle;rounded=0;orthogonalLoop=1;jettySize=auto;html=1;" edge="1" parent="1" source="YxZmmdV7Os8zLfBFAMLC-53" target="YxZmmdV7Os8zLfBFAMLC-55">
          <mxGeometry relative="1" as="geometry" />
        </mxCell>
        <mxCell id="YxZmmdV7Os8zLfBFAMLC-53" value="INPUT&lt;div&gt;a,b,c&lt;/div&gt;" style="shape=parallelogram;perimeter=parallelogramPerimeter;whiteSpace=wrap;html=1;fixedSize=1;" vertex="1" parent="1">
          <mxGeometry x="310" y="140" width="120" height="60" as="geometry" />
        </mxCell>
        <mxCell id="YxZmmdV7Os8zLfBFAMLC-54" value="" style="edgeStyle=orthogonalEdgeStyle;rounded=0;orthogonalLoop=1;jettySize=auto;html=1;" edge="1" parent="1" source="YxZmmdV7Os8zLfBFAMLC-55" target="YxZmmdV7Os8zLfBFAMLC-59">
          <mxGeometry relative="1" as="geometry" />
        </mxCell>
        <mxCell id="YxZmmdV7Os8zLfBFAMLC-55" value="DECLARAR&lt;div&gt;z&lt;/div&gt;" style="whiteSpace=wrap;html=1;" vertex="1" parent="1">
          <mxGeometry x="310" y="240" width="120" height="60" as="geometry" />
        </mxCell>
        <mxCell id="YxZmmdV7Os8zLfBFAMLC-56" value="" style="edgeStyle=orthogonalEdgeStyle;rounded=0;orthogonalLoop=1;jettySize=auto;html=1;" edge="1" parent="1" source="YxZmmdV7Os8zLfBFAMLC-57" target="YxZmmdV7Os8zLfBFAMLC-61">
          <mxGeometry relative="1" as="geometry" />
        </mxCell>
        <mxCell id="YxZmmdV7Os8zLfBFAMLC-57" value="z=a&lt;div&gt;a=c&lt;/div&gt;&lt;div&gt;c=b&lt;/div&gt;&lt;div&gt;b=z&lt;/div&gt;" style="whiteSpace=wrap;html=1;" vertex="1" parent="1">
          <mxGeometry x="310" y="410" width="120" height="70" as="geometry" />
        </mxCell>
        <mxCell id="YxZmmdV7Os8zLfBFAMLC-58" style="edgeStyle=orthogonalEdgeStyle;rounded=0;orthogonalLoop=1;jettySize=auto;html=1;entryX=0.5;entryY=0;entryDx=0;entryDy=0;" edge="1" parent="1" source="YxZmmdV7Os8zLfBFAMLC-59" target="YxZmmdV7Os8zLfBFAMLC-57">
          <mxGeometry relative="1" as="geometry" />
        </mxCell>
        <mxCell id="YxZmmdV7Os8zLfBFAMLC-59" value="OUTPUT&lt;div&gt;&quot;Los valores son: a = &quot;, a , &quot; b =&amp;nbsp; &quot;, b , &quot; y c = &quot;, c&amp;nbsp;&lt;/div&gt;" style="shape=parallelogram;perimeter=parallelogramPerimeter;whiteSpace=wrap;html=1;fixedSize=1;" vertex="1" parent="1">
          <mxGeometry x="215" y="330" width="310" height="60" as="geometry" />
        </mxCell>
        <mxCell id="YxZmmdV7Os8zLfBFAMLC-60" value="" style="edgeStyle=orthogonalEdgeStyle;rounded=0;orthogonalLoop=1;jettySize=auto;html=1;" edge="1" parent="1" source="YxZmmdV7Os8zLfBFAMLC-61" target="YxZmmdV7Os8zLfBFAMLC-62">
          <mxGeometry relative="1" as="geometry" />
        </mxCell>
        <mxCell id="YxZmmdV7Os8zLfBFAMLC-61" value="OUTPUT&lt;div&gt;&quot;Permutamos: a =&amp;gt; b, b =&amp;gt; c, c =&amp;gt; a&quot;&lt;br&gt;&lt;/div&gt;&lt;div&gt;&quot;Los valores despues de la permutacion son: a = &quot; , a , &quot; b = &quot; , b , &quot; c = &quot; , c&lt;br&gt;&lt;/div&gt;" style="shape=parallelogram;perimeter=parallelogramPerimeter;whiteSpace=wrap;html=1;fixedSize=1;" vertex="1" parent="1">
          <mxGeometry x="117.5" y="510" width="505" height="60" as="geometry" />
        </mxCell>
        <mxCell id="YxZmmdV7Os8zLfBFAMLC-62" value="FIN" style="ellipse;whiteSpace=wrap;html=1;" vertex="1" parent="1">
          <mxGeometry x="330" y="610" width="80" height="80" as="geometry" />
        </mxCell>
      </root>
    </mxGraphModel>
  </diagram>
</mxfile>
